<?xml version="1.0" encoding="utf-8"?>
<!-- Svg Vector Icons : http://www.onlinewebfonts.com/icon -->
<!DOCTYPE svg PUBLIC "-//W3C//DTD SVG 1.1//EN" "http://www.w3.org/Graphics/SVG/1.1/DTD/svg11.dtd">
<svg version="1.1" xmlns="http://www.w3.org/2000/svg" xmlns:xlink="http://www.w3.org/1999/xlink" x="0px" y="0px" viewBox="0 0 1000 1000" enable-background="new 0 0 1000 1000" xml:space="preserve">
<metadata> Svg Vector Icons : http://www.onlinewebfonts.com/icon </metadata>
<g><g><g><rect x="10" y="694.5" width="299.8" height="231.2"/><rect x="690.2" y="773.4" width="299.8" height="152.3"/><path d="M663.3,773.4V599H336.7v95.5v231.2h326.7L663.3,773.4L663.3,773.4z M516.1,849.5c0,8.9-7.2,16.1-16.1,16.1s-16.1-7.2-16.1-16.1V714l-18.1,18.2c-3.1,3.2-7.3,4.7-11.4,4.7c-4.1,0-8.2-1.6-11.4-4.7c-6.3-6.3-6.3-16.5,0-22.8l45.6-45.8c0,0,0,0,0,0c0.7-0.7,1.6-1.4,2.4-2c0.4-0.3,0.8-0.4,1.2-0.7c0.5-0.3,1-0.6,1.5-0.8c0.5-0.2,1.1-0.3,1.6-0.5c0.5-0.1,0.9-0.3,1.4-0.4c1-0.2,2.1-0.3,3.1-0.3c0,0,0,0,0,0c0.2,0,0.3,0,0.5,0c0.9,0,1.8,0.1,2.7,0.3c0.5,0.1,0.9,0.3,1.4,0.4c0.5,0.2,1.1,0.3,1.6,0.5c0.5,0.2,1,0.5,1.5,0.8c0.4,0.2,0.9,0.4,1.3,0.7c0.7,0.5,1.4,1.1,2.1,1.7c0.1,0.1,0.3,0.2,0.4,0.3c0,0,0,0,0,0c0.7,0.7,1.4,1.6,2,2.4c0.3,0.4,0.4,0.8,0.7,1.2c0.3,0.5,0.6,1,0.8,1.5c0.2,0.5,0.3,1.1,0.5,1.6c0.1,0.5,0.3,0.9,0.4,1.4c0.2,1,0.3,2.1,0.3,3.2c0,0,0,0,0,0V849.5L516.1,849.5L516.1,849.5z"/><circle cx="515.1" cy="207.4" r="43.3"/><path d="M469.1,314.5v64.1l-62.4,76.2c-6.3,7.7-5.5,18.9,1.8,25.7l47.8,44.2c3.6,3.3,8.2,5,12.7,5c5.1,0,10.1-2,13.8-6c7-7.6,6.6-19.5-1.1-26.5L447,464.9l31.7-38.7h45.3V555c0,7.6,4.6,14.2,11.1,17.1c2.3,1,4.9,1.6,7.6,1.6c2.7,0,5.3-0.6,7.6-1.6c6.6-2.9,11.1-9.5,11.1-17.1V398.6c0-1.3-0.1-2.5-0.4-3.7v-82.1l50.6-76.8c2-3.1,3.1-6.7,3.1-10.3V93.1c0-10.4-8.4-18.8-18.8-18.8c-10.4,0-18.8,8.4-18.8,18.8V220l-29.2,44.3h-74.8l-31.4-33.1l8.7-36.1c2.4-10.1-3.8-20.2-13.9-22.6c-10.1-2.4-20.2,3.8-22.6,13.9l-11,46c-1.5,6.2,0.3,12.7,4.6,17.3L469.1,314.5z"/></g></g><g></g><g></g><g></g><g></g><g></g><g></g><g></g><g></g><g></g><g></g><g></g><g></g><g></g><g></g><g></g></g>
</svg>